<?xml version="1.0" encoding="UTF-8" standalone="no"?>
<!-- Created with Inkscape (http://www.inkscape.org/) -->

<svg
   xmlns:dc="http://purl.org/dc/elements/1.1/"
   xmlns:cc="http://creativecommons.org/ns#"
   xmlns:rdf="http://www.w3.org/1999/02/22-rdf-syntax-ns#"
   xmlns:svg="http://www.w3.org/2000/svg"
   xmlns="http://www.w3.org/2000/svg"
   xmlns:sodipodi="http://sodipodi.sourceforge.net/DTD/sodipodi-0.dtd"
   xmlns:inkscape="http://www.inkscape.org/namespaces/inkscape"
   id="svg2"
   version="1.1"
   inkscape:version="0.48.4 r9939"
   width="553.79645"
   height="553.79645"
   sodipodi:docname="computerwindows.svg">
  <metadata
     id="metadata8">
    <rdf:RDF>
      <cc:Work
         rdf:about="">
        <dc:format>image/svg+xml</dc:format>
        <dc:type
           rdf:resource="http://purl.org/dc/dcmitype/StillImage" />
        <dc:title></dc:title>
      </cc:Work>
    </rdf:RDF>
  </metadata>
  <defs
     id="defs6" />
  <sodipodi:namedview
     pagecolor="#ffffff"
     bordercolor="#666666"
     borderopacity="1"
     objecttolerance="10"
     gridtolerance="10"
     guidetolerance="10"
     inkscape:pageopacity="0"
     inkscape:pageshadow="2"
     inkscape:window-width="1920"
     inkscape:window-height="1012"
     id="namedview4"
     showgrid="false"
     inkscape:zoom="0.921875"
     inkscape:cx="271.4338"
     inkscape:cy="412.8147"
     inkscape:window-x="0"
     inkscape:window-y="29"
     inkscape:window-maximized="1"
     inkscape:current-layer="svg2"
     fit-margin-top="0"
     fit-margin-left="0"
     fit-margin-right="0"
     fit-margin-bottom="0" />
  <path
     sodipodi:type="arc"
     style="fill:#4db7bc;fill-opacity:1;stroke:none"
     id="path4304"
     sodipodi:cx="98.947006"
     sodipodi:cy="96.457535"
     sodipodi:rx="255.42136"
     sodipodi:ry="255.42136"
     d="m 354.36836,96.457535 a 255.42136,255.42136 0 1 1 -510.84271,0 255.42136,255.42136 0 1 1 510.84271,0 z"
     transform="matrix(1.0840841,0,0,1.0840841,169.63135,172.33015)" />
  <rect
     style="fill:#ffffff;fill-opacity:1;stroke:none"
     id="rect4241"
     width="385.04959"
     height="208.24895"
     x="85.140465"
     y="126.20522"
     ry="0" />
  <path
     style="fill:#08191e;fill-opacity:1;stroke:none"
     d="m 85.752632,110.51492 c -9.876102,0 -17.84375,7.96765 -17.84375,17.84375 l 0,221.34375 418.718748,0 0,-221.34375 c 0,-9.8761 -7.9364,-17.84375 -17.8125,-17.84375 l -383.062498,0 z m 400.781248,288.8125 c -0.18162,1.80191 -0.63874,3.52535 -1.3125,5.125 0.67478,-1.60066 1.13057,-3.32277 1.3125,-5.125 z M 75.752632,412.29617 c 0.948099,0.63947 1.964143,1.17515 3.03125,1.625 -1.067897,-0.44918 -2.082164,-0.98637 -3.03125,-1.625 z m 3.03125,1.625 c 1.600661,0.67478 3.322768,1.13057 5.125,1.3125 -1.791403,-0.1836 -3.532294,-0.64258 -5.125,-1.3125 z m 399.999998,-1.625 c -0.94725,0.63863 -1.96482,1.17582 -3.03125,1.625 1.06711,-0.44985 2.08315,-0.98553 3.03125,-1.625 z m -3.03125,1.625 c -1.59965,0.67376 -3.32309,1.13088 -5.125,1.3125 1.80223,-0.18193 3.52434,-0.63772 5.125,-1.3125 z"
     id="rect4175-2"
     inkscape:connector-curvature="0" />
  <rect
     style="fill:#ffffff;fill-opacity:1;stroke:none"
     id="rect4241-6"
     width="388.90067"
     height="203.28137"
     x="83.21492"
     y="128.68901"
     ry="0" />
  <g
     id="g4306"
     transform="translate(163.09877,171.26492)">
    <path
       sodipodi:nodetypes="cccccc"
       inkscape:connector-curvature="0"
       d="m 169.11865,243.52542 10.30508,61.01695 c -42.90561,-0.79412 -85.80587,-0.3616 -128.711866,0 l 10.305085,-61.01695 54.050851,-25.8983 z"
       style="fill:#ffffff;fill-opacity:1;stroke:none"
       id="path4263-6" />
    <rect
       y="298.57626"
       x="33.627117"
       height="8.1355934"
       width="161.08475"
       id="rect4261"
       style="fill:#d3d2d3;fill-opacity:1;stroke:none" />
  </g>
  <rect
     style="fill:#b3b3b3;fill-opacity:1;stroke:none"
     id="rect4241-6-8"
     width="367.62897"
     height="185.92545"
     x="93.850769"
     y="137.36697"
     ry="0" />
  <g
     id="g4387"
     transform="matrix(1.2779598,0,0,1.2779598,131.61027,154.84729)" />
  <path
     style="fill:#d3d2d3;fill-opacity:1;stroke:none"
     d="m 67.908882,349.70242 0,47.8125 c 0,9.8761 7.967648,17.8125 17.84375,17.8125 l 383.062498,0 c 9.8761,0 17.8125,-7.9364 17.8125,-17.8125 l 0,-47.8125 -418.718748,0 z"
     id="rect4175-2-4"
     inkscape:connector-curvature="0" />
  <path
     sodipodi:type="arc"
     style="fill:#08191e;fill-opacity:1;stroke:none"
     id="path4284"
     sodipodi:cx="111.98654"
     sodipodi:cy="208.44408"
     sodipodi:rx="8.820857"
     sodipodi:ry="8.820857"
     d="m 120.8074,208.44408 a 8.820857,8.820857 0 1 1 -17.64172,0 8.820857,8.820857 0 1 1 17.64172,0 z"
     transform="translate(165.28172,174.07084)" />
  <rect
     style="fill:#e6e6e6;fill-opacity:1;stroke:none"
     id="rect4241-6-8-0"
     width="367.62897"
     height="179.7892"
     x="93.850769"
     y="143.50322"
     ry="0" />
  <rect
     style="fill:#b3b3b3;fill-opacity:1;stroke:none"
     id="rect4631-1"
     width="223.67772"
     height="138.24045"
     x="134.61397"
     y="158.12033" />
  <rect
     style="fill:#ffffff;fill-opacity:1;stroke:none"
     id="rect4631"
     width="219.07553"
     height="129.70122"
     x="136.91505"
     y="165.2374" />
  <path
     sodipodi:type="arc"
     style="fill:#ff0000;fill-opacity:1;stroke:none"
     id="path4669"
     sodipodi:cx="166.82925"
     sodipodi:cy="174.11606"
     sodipodi:rx="1.7258199"
     sodipodi:ry="1.7258199"
     d="m 168.55507,174.11606 a 1.7258199,1.7258199 0 1 1 -3.45164,0 1.7258199,1.7258199 0 1 1 3.45164,0 z"
     transform="translate(-25.932203,-12.474576)" />
  <path
     sodipodi:type="arc"
     style="fill:#ff6600;fill-opacity:1;stroke:none"
     id="path4669-5"
     sodipodi:cx="166.82925"
     sodipodi:cy="174.11606"
     sodipodi:rx="1.7258199"
     sodipodi:ry="1.7258199"
     d="m 168.55507,174.11606 a 1.7258199,1.7258199 0 1 1 -3.45164,0 1.7258199,1.7258199 0 1 1 3.45164,0 z"
     transform="translate(-19.932204,-12.474581)" />
  <path
     sodipodi:type="arc"
     style="fill:#00c800;fill-opacity:1;stroke:none"
     id="path4669-5-1"
     sodipodi:cx="166.82925"
     sodipodi:cy="174.11606"
     sodipodi:rx="1.7258199"
     sodipodi:ry="1.7258199"
     d="m 168.55507,174.11606 a 1.7258199,1.7258199 0 1 1 -3.45164,0 1.7258199,1.7258199 0 1 1 3.45164,0 z"
     transform="translate(-13.932204,-12.474581)" />
  <path
     sodipodi:type="arc"
     style="fill:#08191e;fill-opacity:1;stroke:none"
     id="path4284-5"
     sodipodi:cx="111.98654"
     sodipodi:cy="208.44408"
     sodipodi:rx="8.820857"
     sodipodi:ry="8.820857"
     d="m 120.8074,208.44408 a 8.820857,8.820857 0 1 1 -17.64172,0 8.820857,8.820857 0 1 1 17.64172,0 z"
     transform="matrix(0.25372981,0,0,0.25372981,68.758059,87.434683)" />
  <rect
     style="fill:#08191e;fill-opacity:1;stroke:none"
     id="rect4822"
     width="10.332474"
     height="3.5059285"
     x="430.41043"
     y="138.61397"
     ry="1.7529643" />
  <rect
     style="fill:#08191e;fill-opacity:1;stroke:none"
     id="rect4822-7"
     width="10.332474"
     height="3.5059285"
     x="442.45706"
     y="138.61397"
     ry="1.7529643" />
  <rect
     style="fill:#08191e;fill-opacity:1;stroke:none"
     id="rect4822-7-8"
     width="10.332474"
     height="3.5059285"
     x="416.85797"
     y="138.61397"
     ry="1.7529643" />
  <text
     xml:space="preserve"
     style="font-size:31.90434837px;font-style:normal;font-variant:normal;font-weight:normal;font-stretch:normal;text-align:center;line-height:125%;letter-spacing:0px;word-spacing:0px;text-anchor:middle;fill:#000000;fill-opacity:1;stroke:none;font-family:'Organo (colored version at: logomagazin.com/organo-font)';-inkscape-font-specification:'Organo (colored version at: logomagazin.com/organo-font)'"
     x="247.63104"
     y="213.92432"
     id="text4879"
     sodipodi:linespacing="125%"><tspan
       sodipodi:role="line"
       id="tspan4881"
       x="247.63104"
       y="213.92432"><tspan
         style="text-align:center;text-anchor:middle;fill:#153ae0;fill-opacity:1"
         id="tspan4941">s</tspan><tspan
         style="text-align:center;text-anchor:middle;fill:#ff1c1c;fill-opacity:1"
         id="tspan5001">e</tspan><tspan
         style="text-align:center;text-anchor:middle;fill:#cac900;fill-opacity:1"
         id="tspan5019">a</tspan><tspan
         style="text-align:center;text-anchor:middle;fill:#1038e4;fill-opacity:1"
         id="tspan5057">r</tspan><tspan
         style="text-align:center;text-anchor:middle;fill:#007820;fill-opacity:1"
         id="tspan5071">c</tspan><tspan
         style="text-align:center;text-anchor:middle;fill:#ff1d1d;fill-opacity:1"
         id="tspan5099">h</tspan></tspan></text>
  <rect
     style="fill:#808080;fill-opacity:1;stroke:none"
     id="rect4631-2"
     width="168.83516"
     height="8.1859465"
     x="162.03525"
     y="223.99504" />
  <rect
     style="fill:#ffffff;fill-opacity:1;stroke:none"
     id="rect4631-2-5"
     width="166.78867"
     height="6.1394601"
     x="163.05849"
     y="225.01828" />
</svg>
